<svg id="Capa_1" data-name="Capa 1" xmlns="http://www.w3.org/2000/svg" viewBox="0 0 164.07 31.75"><defs><style>.cls-1{fill:#14b1e7;}</style></defs><title>logos entrekids</title><path class="cls-1" d="M39.78,12.49a6.42,6.42,0,0,0-2.38-1.67,8.82,8.82,0,0,0-3.41-.6,8,8,0,0,0-2.32.32,7.9,7.9,0,0,0-1.93.86,7,7,0,0,0-1.48,1.22,5.78,5.78,0,0,0-1,1.42h-.09q0-.86,0-1.67t0-1.63H23.95q0,1,.09,2.19t.09,2.57V30.8h3.35V21a12.55,12.55,0,0,1,.36-3.13,7.1,7.1,0,0,1,1.12-2.45,5,5,0,0,1,1.93-1.59,6.53,6.53,0,0,1,2.81-.56,4.1,4.1,0,0,1,3.48,1.46,6.42,6.42,0,0,1,1.12,4V30.8h3.35V18.41a11.68,11.68,0,0,0-.45-3.32A6.79,6.79,0,0,0,39.78,12.49Z"/><path class="cls-1" d="M56.25,28.06a6.89,6.89,0,0,1-1.5.17A3.33,3.33,0,0,1,53,27.87a2.3,2.3,0,0,1-.9-1,3.75,3.75,0,0,1-.34-1.46q0-.84,0-1.82v-10h5.92V10.73H51.75V5H48.4v5.71H44v2.83H48.4v11a18.76,18.76,0,0,0,.19,2.81,4.94,4.94,0,0,0,.79,2.12,3.89,3.89,0,0,0,1.67,1.33,7.26,7.26,0,0,0,2.87.47,12.48,12.48,0,0,0,2-.17,7.65,7.65,0,0,0,1.91-.56l-.13-3A6.27,6.27,0,0,1,56.25,28.06Z"/><path class="cls-1" d="M70.37,10.21a8,8,0,0,0-2.32.32,7.9,7.9,0,0,0-1.93.86,7,7,0,0,0-1.48,1.22,5.78,5.78,0,0,0-1,1.42h-.09q0-.86,0-1.67t0-1.63H60.33q0,1,.09,2.19t.09,2.57V30.8h3.35V21a9.41,9.41,0,0,1,1.39-5.47,5.08,5.08,0,0,1,4.48-2,6.23,6.23,0,0,1,1.8.26l.21-3.39a3,3,0,0,0-.69-.17A5.69,5.69,0,0,0,70.37,10.21Z"/><polygon class="cls-1" points="113.35 10.73 108.59 10.73 99.45 19.56 99.45 0.9 96.11 0.9 96.11 30.8 99.45 30.8 99.45 20.25 109.41 30.8 114.34 30.8 103.66 19.86 113.35 10.73"/><rect class="cls-1" x="116.88" y="10.73" width="3.35" height="20.08"/><path class="cls-1" d="M118.56.43a2.33,2.33,0,0,0-1.74.73,2.38,2.38,0,0,0-.71,1.72,2.45,2.45,0,1,0,4.89,0,2.39,2.39,0,0,0-.71-1.72A2.33,2.33,0,0,0,118.56.43Z"/><path class="cls-1" d="M163.29,22.48a4.86,4.86,0,0,0-1.42-1.72,7.34,7.34,0,0,0-2.1-1.09,19.26,19.26,0,0,0-2.53-.67,19.46,19.46,0,0,1-1.91-.43,9.65,9.65,0,0,1-1.63-.6,3.59,3.59,0,0,1-1.12-.79,1.57,1.57,0,0,1-.41-1.09,2.13,2.13,0,0,1,.37-1.22,3,3,0,0,1,.92-.88,4.38,4.38,0,0,1,1.27-.51,5.94,5.94,0,0,1,1.39-.17,4.68,4.68,0,0,1,2.55.67,5.19,5.19,0,0,1,1.69,1.74l2.79-1.84a6.18,6.18,0,0,0-2.85-2.79,9.2,9.2,0,0,0-4-.86,9.8,9.8,0,0,0-2.75.39,8.4,8.4,0,0,0-2.4,1.12,5.57,5.57,0,0,0-1.72,1.84,5.05,5.05,0,0,0-.64,2.57,4.94,4.94,0,0,0,.58,2.53A4.74,4.74,0,0,0,151,20.27a8.81,8.81,0,0,0,2.25,1q1.29.39,2.7.69.81.17,1.59.39a5.49,5.49,0,0,1,1.37.58,3.2,3.2,0,0,1,1,.88,2.26,2.26,0,0,1,.36,1.33,2.45,2.45,0,0,1-.39,1.39,3.19,3.19,0,0,1-1,1,4.7,4.7,0,0,1-1.44.56,7.37,7.37,0,0,1-1.57.17,5.59,5.59,0,0,1-3-.73,8.43,8.43,0,0,1-2.17-2L148,27.59a8.06,8.06,0,0,0,3.37,2.94,11.31,11.31,0,0,0,4.44.79,12.61,12.61,0,0,0,2.94-.34,8,8,0,0,0,2.57-1.09,5.69,5.69,0,0,0,1.82-2A5.8,5.8,0,0,0,163.8,25,5.62,5.62,0,0,0,163.29,22.48Z"/><path class="cls-1" d="M17.58,13a8.37,8.37,0,0,0-3-2.06,10.26,10.26,0,0,0-3.86-.71A10.78,10.78,0,0,0,6.58,11a9.64,9.64,0,0,0-3.26,2.17A9.89,9.89,0,0,0,1.17,16.5,11.51,11.51,0,0,0,.4,20.77a11.87,11.87,0,0,0,.71,4.12,9.87,9.87,0,0,0,2,3.35,9.56,9.56,0,0,0,3.2,2.25,10.37,10.37,0,0,0,4.25.84,12.51,12.51,0,0,0,5-.92,10.19,10.19,0,0,0,3.95-3.24l-2.53-2a8.38,8.38,0,0,1-2.7,2.27,8,8,0,0,1-3.69.77A6.16,6.16,0,0,1,8,27.72a6.44,6.44,0,0,1-2-1.39,7.14,7.14,0,0,1-1.39-2.06A7,7,0,0,1,4,21.8H20.22V20.72a13.36,13.36,0,0,0-.69-4.44A9.26,9.26,0,0,0,17.58,13ZM4,19a6.48,6.48,0,0,1,2.06-4.12,6.48,6.48,0,0,1,4.5-1.54,6,6,0,0,1,4.38,1.54A5.77,5.77,0,0,1,16.61,19Z"/><path class="cls-1" d="M89.57,13a8.37,8.37,0,0,0-3-2.06,10.26,10.26,0,0,0-3.86-.71,10.77,10.77,0,0,0-4.12.77,9.64,9.64,0,0,0-3.26,2.17,9.89,9.89,0,0,0-2.15,3.35,11.51,11.51,0,0,0-.77,4.27,11.87,11.87,0,0,0,.71,4.12,9.87,9.87,0,0,0,2,3.35,9.56,9.56,0,0,0,3.2,2.25,10.38,10.38,0,0,0,4.25.84,12.51,12.51,0,0,0,5-.92,10.19,10.19,0,0,0,3.95-3.24l-2.53-2a8.38,8.38,0,0,1-2.7,2.27,8,8,0,0,1-3.69.77A6.16,6.16,0,0,1,80,27.72a6.44,6.44,0,0,1-2-1.39,7.15,7.15,0,0,1-1.39-2.06A7,7,0,0,1,76,21.8H92.2V20.72a13.36,13.36,0,0,0-.69-4.44A9.27,9.27,0,0,0,89.57,13ZM76,19a6.18,6.18,0,0,1,6.56-5.66,6,6,0,0,1,4.38,1.54A5.77,5.77,0,0,1,88.6,19Z"/><path class="cls-1" d="M142,.9V13.64h-.09a9.89,9.89,0,0,0-3.2-2.53,8.93,8.93,0,0,0-4-.9,11.35,11.35,0,0,0-4.31.79A9.6,9.6,0,0,0,127,13.22a10.18,10.18,0,0,0-2.14,3.35,11.22,11.22,0,0,0-.77,4.2,11.22,11.22,0,0,0,.77,4.2A10.37,10.37,0,0,0,127,28.32a9.62,9.62,0,0,0,3.2,2.21,9.88,9.88,0,0,0,3.95.79,9.3,9.3,0,0,0,4.74-1.18,7.67,7.67,0,0,0,3-2.9H142V30.8h3.35V.9Zm-.49,22.81a6.77,6.77,0,0,1-3.69,3.95,7.75,7.75,0,0,1-5.88,0,6.78,6.78,0,0,1-3.69-3.95,9,9,0,0,1,0-5.88,6.78,6.78,0,0,1,3.69-3.95,7.74,7.74,0,0,1,5.88,0,6.77,6.77,0,0,1,3.69,3.95,9,9,0,0,1,0,5.88Z"/></svg>