<?xml version="1.0" encoding="UTF-8"?>
<svg width="12px" height="12px" viewBox="0 0 12 12" version="1.1" xmlns="http://www.w3.org/2000/svg" xmlns:xlink="http://www.w3.org/1999/xlink">
    <!-- Generator: sketchtool 50.2 (55047) - http://www.bohemiancoding.com/sketch -->
    <title>32393E1D-B6C1-4A46-81FB-695AEAA9E247</title>
    <desc>Created with sketchtool.</desc>
    <defs></defs>
    <g id="PANEL" stroke="none" stroke-width="1" fill="none" fill-rule="evenodd">
        <g id="Panel-Prov.---P.-Control" transform="translate(-17.000000, -133.000000)" fill="#4A4A4A" fill-rule="nonzero">
            <g id="baseline-date_range-24px" transform="translate(17.000000, 133.000000)">
                <path d="M4,5.4 L2.66666667,5.4 L2.66666667,6.6 L4,6.6 L4,5.4 Z M6.66666667,5.4 L5.33333333,5.4 L5.33333333,6.6 L6.66666667,6.6 L6.66666667,5.4 Z M9.33333333,5.4 L8,5.4 L8,6.6 L9.33333333,6.6 L9.33333333,5.4 Z M10.6666667,1.2 L10,1.2 L10,0 L8.66666667,0 L8.66666667,1.2 L3.33333333,1.2 L3.33333333,0 L2,0 L2,1.2 L1.33333333,1.2 C0.593333333,1.2 0.00666666667,1.74 0.00666666667,2.4 L0,10.8 C0,11.46 0.593333333,12 1.33333333,12 L10.6666667,12 C11.4,12 12,11.46 12,10.8 L12,2.4 C12,1.74 11.4,1.2 10.6666667,1.2 Z M10.6666667,10.8 L1.33333333,10.8 L1.33333333,4.2 L10.6666667,4.2 L10.6666667,10.8 Z" id="Shape"></path>
            </g>
        </g>
    </g>
</svg>