<?xml version="1.0" encoding="UTF-8"?>
<svg width="12px" height="12px" viewBox="0 0 12 12" version="1.1" xmlns="http://www.w3.org/2000/svg" xmlns:xlink="http://www.w3.org/1999/xlink">
    <!-- Generator: sketchtool 50.2 (55047) - http://www.bohemiancoding.com/sketch -->
    <title>5ABEADE7-CBAD-4F4C-9719-029E47279E0D</title>
    <desc>Created with sketchtool.</desc>
    <defs></defs>
    <g id="FRONTEND" stroke="none" stroke-width="1" fill="none" fill-rule="evenodd">
        <g id="ICONOS" transform="translate(-147.000000, -2920.000000)" fill="#F56A80" fill-rule="nonzero">
            <path d="M156.333333,2926.6 L153,2926.6 L153,2929.6 L156.333333,2929.6 L156.333333,2926.6 Z M155.666667,2920 L155.666667,2921.2 L150.333333,2921.2 L150.333333,2920 L149,2920 L149,2921.2 L148.333333,2921.2 C147.593333,2921.2 147.006667,2921.74 147.006667,2922.4 L147,2930.8 C147,2931.46 147.593333,2932 148.333333,2932 L157.666667,2932 C158.4,2932 159,2931.46 159,2930.8 L159,2922.4 C159,2921.74 158.4,2921.2 157.666667,2921.2 L157,2921.2 L157,2920 L155.666667,2920 Z M157.666667,2930.8 L148.333333,2930.8 L148.333333,2924.2 L157.666667,2924.2 L157.666667,2930.8 Z" id="Shape-Copy-5"></path>
        </g>
    </g>
</svg>