<?xml version="1.0" encoding="UTF-8"?>
<svg width="15px" height="12px" viewBox="0 0 15 12" version="1.1" xmlns="http://www.w3.org/2000/svg" xmlns:xlink="http://www.w3.org/1999/xlink">
    <!-- Generator: sketchtool 50.2 (55047) - http://www.bohemiancoding.com/sketch -->
    <title>82FDE669-C198-4693-A0A2-C67126FECA89</title>
    <desc>Created with sketchtool.</desc>
    <defs></defs>
    <g id="PANEL" stroke="none" stroke-width="1" fill="none" fill-rule="evenodd">
        <g id="Panel-Prov.---P.-Control" transform="translate(-15.000000, -509.000000)" fill="#F56A80" fill-rule="nonzero">
            <g id="baseline-local_activity-24px" transform="translate(15.000000, 509.000000)">
                <path d="M13.5,6 C13.5,5.175 14.175,4.5 15,4.5 L15,1.5 C15,0.675 14.325,0 13.5,0 L1.5,0 C0.675,0 0.0075,0.675 0.0075,1.5 L0.0075,4.5 C0.8325,4.5 1.5,5.175 1.5,6 C1.5,6.825 0.8325,7.5 0,7.5 L0,10.5 C0,11.325 0.675,12 1.5,12 L13.5,12 C14.325,12 15,11.325 15,10.5 L15,7.5 C14.175,7.5 13.5,6.825 13.5,6 Z M10.185,9.6 L7.5,7.875 L4.815,9.6 L5.625,6.51 L3.1575,4.4925 L6.3375,4.305 L7.5,1.35 L8.655,4.3125 L11.835,4.5 L9.3675,6.5175 L10.185,9.6 Z" id="Shape"></path>
            </g>
        </g>
    </g>
</svg>