<?xml version="1.0" encoding="UTF-8"?>
<svg width="14px" height="14px" viewBox="0 0 14 14" version="1.1" xmlns="http://www.w3.org/2000/svg" xmlns:xlink="http://www.w3.org/1999/xlink">
    <!-- Generator: sketchtool 50.2 (55047) - http://www.bohemiancoding.com/sketch -->
    <title>3E1787A6-5042-4C90-9F37-AE50C4376048</title>
    <desc>Created with sketchtool.</desc>
    <defs></defs>
    <g id="PANEL" stroke="none" stroke-width="1" fill="none" fill-rule="evenodd">
        <g id="Panel-Prov.---P.-Control" transform="translate(-16.000000, -255.000000)" fill="#F56A80" fill-rule="nonzero">
            <g id="baseline-thumbs_up_down-24px" transform="translate(16.000000, 255.000000)">
                <path d="M7,3.5 C7,3.17916667 6.7375,2.91666667 6.41666667,2.91666667 L3.395,2.91666667 L3.78,1.06166667 L3.79166667,0.9275 C3.79166667,0.746666667 3.71583333,0.583333333 3.59916667,0.460833333 L3.13833333,0 L0.256666667,2.88166667 C0.0991666667,3.03916667 0,3.26083333 0,3.5 L0,7.29166667 C0,7.77583333 0.390833333,8.16666667 0.875,8.16666667 L4.8125,8.16666667 C5.17416667,8.16666667 5.48333333,7.945 5.6175,7.63583333 L6.93583333,4.55 C6.97666667,4.45083333 7,4.34 7,4.22916667 L7,3.5 Z M13.125,5.83333333 L9.1875,5.83333333 C8.82583333,5.83333333 8.51666667,6.055 8.3825,6.36416667 L7.06416667,9.45 C7.02333333,9.54916667 7,9.66 7,9.77083333 L7,10.5 C7,10.8208333 7.2625,11.0833333 7.58333333,11.0833333 L10.605,11.0833333 L10.22,12.9383333 L10.2083333,13.0783333 C10.2083333,13.2591667 10.2841667,13.4225 10.4008333,13.545 L10.8616667,14 L13.7433333,11.1183333 C13.9008333,10.9608333 14,10.7391667 14,10.5 L14,6.70833333 C14,6.22416667 13.6091667,5.83333333 13.125,5.83333333 Z" id="Shape"></path>
            </g>
        </g>
    </g>
</svg>