<?xml version="1.0" encoding="UTF-8"?>
<svg width="14px" height="14px" viewBox="0 0 14 14" version="1.1" xmlns="http://www.w3.org/2000/svg" xmlns:xlink="http://www.w3.org/1999/xlink">
    <!-- Generator: sketchtool 50.2 (55047) - http://www.bohemiancoding.com/sketch -->
    <title>83049DAB-61EA-4615-AE55-C58D2633E674</title>
    <desc>Created with sketchtool.</desc>
    <defs></defs>
    <g id="FRONTEND" stroke="none" stroke-width="1" fill="none" fill-rule="evenodd">
        <g id="ICONOS" transform="translate(-739.000000, -1971.000000)" fill="#4A4A4A" fill-rule="nonzero">
            <g id="baseline-local_offer-24px" transform="translate(739.000000, 1971.000000)">
                <path d="M13.587,6.706 L7.287,0.406 C7.035,0.154 6.685,0 6.3,0 L1.4,0 C0.63,0 0,0.63 0,1.4 L0,6.3 C0,6.685 0.154,7.035 0.413,7.294 L6.713,13.594 C6.965,13.846 7.315,14 7.7,14 C8.085,14 8.435,13.846 8.687,13.587 L13.587,8.687 C13.846,8.435 14,8.085 14,7.7 C14,7.315 13.839,6.958 13.587,6.706 Z M2.45,3.5 C1.869,3.5 1.4,3.031 1.4,2.45 C1.4,1.869 1.869,1.4 2.45,1.4 C3.031,1.4 3.5,1.869 3.5,2.45 C3.5,3.031 3.031,3.5 2.45,3.5 Z" id="Shape"></path>
            </g>
        </g>
    </g>
</svg>