<?xml version="1.0" encoding="UTF-8"?>
<svg width="20px" height="17px" viewBox="0 0 20 17" version="1.1" xmlns="http://www.w3.org/2000/svg" xmlns:xlink="http://www.w3.org/1999/xlink">
    <!-- Generator: sketchtool 50.2 (55047) - http://www.bohemiancoding.com/sketch -->
    <title>B96F388B-FA56-410A-AB85-40E831643C7E</title>
    <desc>Created with sketchtool.</desc>
    <defs></defs>
    <g id="Welcome" stroke="none" stroke-width="1" fill="none" fill-rule="evenodd">
        <g id="Cuenta--Compras" transform="translate(-635.000000, -107.000000)" fill="#777777" fill-rule="nonzero">
            <g id="-" transform="translate(635.000000, 107.000000)">
                <path d="M14.7363636,6.25184405 L10.7545455,0.376185458 C10.5818182,0.125395153 10.2909091,0 10,0 C9.70909091,0 9.41818182,0.125395153 9.24545455,0.385142255 L5.26363636,6.25184405 L0.909090909,6.25184405 C0.409090909,6.25184405 0,6.65489989 0,7.14752371 C0,7.22813488 0.00909090909,7.30874605 0.0363636364,7.38935722 L2.34545455,15.6923077 C2.55454545,16.4446786 3.25454545,17 4.09090909,17 L15.9090909,17 C16.7454545,17 17.4454545,16.4446786 17.6636364,15.6923077 L19.9727273,7.38935722 L20,7.14752371 C20,6.65489989 19.5909091,6.25184405 19.0909091,6.25184405 L14.7363636,6.25184405 Z M7.27272727,6.25184405 L10,2.31085353 L12.7272727,6.25184405 L7.27272727,6.25184405 Z M10,13.4172813 C9,13.4172813 8.18181818,12.6111697 8.18181818,11.625922 C8.18181818,10.6406744 9,9.8345627 10,9.8345627 C11,9.8345627 11.8181818,10.6406744 11.8181818,11.625922 C11.8181818,12.6111697 11,13.4172813 10,13.4172813 Z" id="Shape"></path>
            </g>
        </g>
    </g>
</svg>