<?xml version="1.0" encoding="UTF-8"?>
<svg width="20px" height="16px" viewBox="0 0 20 16" version="1.1" xmlns="http://www.w3.org/2000/svg" xmlns:xlink="http://www.w3.org/1999/xlink">
    <!-- Generator: sketchtool 50.2 (55047) - http://www.bohemiancoding.com/sketch -->
    <title>EE8EF5FC-2263-48E5-93F4-249814E07796</title>
    <desc>Created with sketchtool.</desc>
    <defs></defs>
    <g id="Welcome" stroke="none" stroke-width="1" fill="none" fill-rule="evenodd">
        <g id="Cuenta--Compras" transform="translate(-750.000000, -108.000000)" fill="#777777" fill-rule="nonzero">
            <g id="baseline-local_activity-24px" transform="translate(750.000000, 108.000000)">
                <path d="M18,8 C18,6.9 18.9,6 20,6 L20,2 C20,0.9 19.1,0 18,0 L2,0 C0.9,0 0.01,0.9 0.01,2 L0.01,6 C1.11,6 2,6.9 2,8 C2,9.1 1.11,10 0,10 L0,14 C0,15.1 0.9,16 2,16 L18,16 C19.1,16 20,15.1 20,14 L20,10 C18.9,10 18,9.1 18,8 Z M13.58,12.8 L10,10.5 L6.42,12.8 L7.5,8.68 L4.21,5.99 L8.45,5.74 L10,1.8 L11.54,5.75 L15.78,6 L12.49,8.69 L13.58,12.8 Z" id="Shape"></path>
            </g>
        </g>
    </g>
</svg>