<?xml version="1.0" encoding="UTF-8"?>
<svg width="18px" height="22px" viewBox="0 0 18 22" version="1.1" xmlns="http://www.w3.org/2000/svg" xmlns:xlink="http://www.w3.org/1999/xlink">
    <!-- Generator: sketchtool 50.2 (55047) - http://www.bohemiancoding.com/sketch -->
    <title>2583E12B-5026-4DC3-9BA6-70CD8FC466F1</title>
    <desc>Created with sketchtool.</desc>
    <defs></defs>
    <g id="Welcome" stroke="none" stroke-width="1" fill="none" fill-rule="evenodd">
        <g id="Cuenta--Compras" transform="translate(-1109.000000, -105.000000)" fill="#777777" fill-rule="nonzero">
            <g id="baseline-notifications-24px" transform="translate(1109.000000, 105.000000)">
                <path d="M9,21.25 C10.2375,21.25 11.25,20.29375 11.25,19.125 L6.75,19.125 C6.75,20.29375 7.75125,21.25 9,21.25 Z M15.75,14.875 L15.75,9.5625 C15.75,6.300625 13.905,3.57 10.6875,2.8475 L10.6875,2.125 C10.6875,1.243125 9.93375,0.53125 9,0.53125 C8.06625,0.53125 7.3125,1.243125 7.3125,2.125 L7.3125,2.8475 C4.08375,3.57 2.25,6.29 2.25,9.5625 L2.25,14.875 L0,17 L0,18.0625 L18,18.0625 L18,17 L15.75,14.875 Z" id="Shape"></path>
            </g>
        </g>
    </g>
</svg>