<?xml version="1.0" encoding="UTF-8"?>
<svg width="21px" height="20px" viewBox="0 0 21 20" version="1.1" xmlns="http://www.w3.org/2000/svg" xmlns:xlink="http://www.w3.org/1999/xlink">
    <!-- Generator: sketchtool 50.2 (55047) - http://www.bohemiancoding.com/sketch -->
    <title>1A2E59D2-0A6E-42A7-9C43-D8D9EA424C17</title>
    <desc>Created with sketchtool.</desc>
    <defs></defs>
    <g id="Welcome" stroke="none" stroke-width="1" fill="none" fill-rule="evenodd">
        <g id="Mi-cuenta---Perfil" transform="translate(-857.000000, -106.000000)" fill="#777777" fill-rule="nonzero">
            <g id="baseline-supervised_user_circle-24px" transform="translate(856.500000, 106.000000)">
                <path d="M10.99,0 C5.47,0 0.99,4.48 0.99,10 C0.99,15.52 5.47,20 10.99,20 C16.51,20 20.99,15.52 20.99,10 C20.99,4.48 16.51,0 10.99,0 Z M14.6,6.34 C15.67,6.34 16.53,7.2 16.53,8.27 C16.53,9.34 15.67,10.2 14.6,10.2 C13.53,10.2 12.67,9.34 12.67,8.27 C12.66,7.2 13.53,6.34 14.6,6.34 Z M8.6,4.76 C9.9,4.76 10.96,5.82 10.96,7.12 C10.96,8.42 9.9,9.48 8.6,9.48 C7.3,9.48 6.24,8.42 6.24,7.12 C6.24,5.81 7.29,4.76 8.6,4.76 Z M8.6,13.89 L8.6,17.64 C6.2,16.89 4.3,15.04 3.46,12.68 C4.51,11.56 7.13,10.99 8.6,10.99 C9.13,10.99 9.8,11.07 10.5,11.21 C8.86,12.08 8.6,13.23 8.6,13.89 Z M10.99,18 C10.72,18 10.46,17.99 10.2,17.96 L10.2,13.89 C10.2,12.47 13.14,11.76 14.6,11.76 C15.67,11.76 17.52,12.15 18.44,12.91 C17.27,15.88 14.38,18 10.99,18 Z" id="Shape"></path>
            </g>
        </g>
    </g>
</svg>