<?xml version="1.0" encoding="UTF-8"?>
<svg width="21px" height="20px" viewBox="0 0 21 20" version="1.1" xmlns="http://www.w3.org/2000/svg" xmlns:xlink="http://www.w3.org/1999/xlink">
    <!-- Generator: sketchtool 50.2 (55047) - http://www.bohemiancoding.com/sketch -->
    <title>1FDBAC2B-18E8-41A3-9079-22C1B18A9EEA</title>
    <desc>Created with sketchtool.</desc>
    <defs></defs>
    <g id="Welcome" stroke="none" stroke-width="1" fill="none" fill-rule="evenodd">
        <g id="Mi-cuenta---Perfil" transform="translate(-741.000000, -106.000000)" fill="#777777" fill-rule="nonzero">
            <g id="outline-face-24px" transform="translate(741.250000, 106.000000)">
                <g id="Fill">
                    <path d="M7,9.75 C6.31,9.75 5.75,10.31 5.75,11 C5.75,11.69 6.31,12.25 7,12.25 C7.69,12.25 8.25,11.69 8.25,11 C8.25,10.31 7.69,9.75 7,9.75 Z M13,9.75 C12.31,9.75 11.75,10.31 11.75,11 C11.75,11.69 12.31,12.25 13,12.25 C13.69,12.25 14.25,11.69 14.25,11 C14.25,10.31 13.69,9.75 13,9.75 Z M10,0 C4.48,0 0,4.48 0,10 C0,15.52 4.48,20 10,20 C15.52,20 20,15.52 20,10 C20,4.48 15.52,0 10,0 Z M10,18 C5.59,18 2,14.41 2,10 C2,9.71 2.02,9.42 2.05,9.14 C4.41,8.09 6.28,6.16 7.26,3.77 C9.07,6.33 12.05,8 15.42,8 C16.2,8 16.95,7.91 17.67,7.74 C17.88,8.45 18,9.21 18,10 C18,14.41 14.41,18 10,18 Z" id="Shape"></path>
                </g>
            </g>
        </g>
    </g>
</svg>