<?xml version="1.0" encoding="UTF-8"?>
<svg width="18px" height="21px" viewBox="0 0 18 21" version="1.1" xmlns="http://www.w3.org/2000/svg" xmlns:xlink="http://www.w3.org/1999/xlink">
    <!-- Generator: sketchtool 50.2 (55047) - http://www.bohemiancoding.com/sketch -->
    <title>7910AECD-610D-4D07-84C1-24A2F449E03F</title>
    <desc>Created with sketchtool.</desc>
    <defs></defs>
    <g id="Welcome" stroke="none" stroke-width="1" fill="none" fill-rule="evenodd">
        <g id="Mi-cuenta---Perfil" transform="translate(-1107.000000, -105.000000)" fill="#777777" fill-rule="nonzero">
            <g id="Outline" transform="translate(1107.000000, 105.000000)">
                <g id="Group">
                    <path d="M7.01,19.1004545 C7.01,20.1504545 7.9,21 9,21 C10.1,21 10.99,20.1504545 10.99,19.1004545 L7.01,19.1004545 Z" id="Shape"></path>
                    <path d="M9,4.77272727 C11.76,4.77272727 14,6.91090909 14,9.54545455 L14,16.2272727 L4,16.2272727 L4,9.54545455 C4,6.91090909 6.24,4.77272727 9,4.77272727 Z M9,0.477272727 C8.17,0.477272727 7.5,1.11681818 7.5,1.90909091 L7.5,3.02590909 C4.36,3.675 2,6.34772727 2,9.54545455 L2,15.2727273 L0,17.1818182 L0,18.1363636 L18,18.1363636 L18,17.1818182 L16,15.2727273 L16,9.54545455 C16,6.34772727 13.64,3.675 10.5,3.02590909 L10.5,1.90909091 C10.5,1.11681818 9.83,0.477272727 9,0.477272727 Z" id="Shape"></path>
                    <rect id="Rectangle-path" x="8" y="6.68181818" width="2" height="3.81818182"></rect>
                    <rect id="Rectangle-path" x="8" y="12.4090909" width="2" height="1.90909091"></rect>
                </g>
            </g>
        </g>
    </g>
</svg>