<?xml version="1.0" encoding="UTF-8"?>
<svg width="26px" height="20px" viewBox="0 0 26 20" version="1.1" xmlns="http://www.w3.org/2000/svg" xmlns:xlink="http://www.w3.org/1999/xlink">
    <!-- Generator: sketchtool 50.2 (55047) - http://www.bohemiancoding.com/sketch -->
    <title>79D78AC5-E121-4DA6-B55B-EBDB549161AD</title>
    <desc>Created with sketchtool.</desc>
    <defs></defs>
    <g id="Welcome" stroke="none" stroke-width="1" fill="none" fill-rule="evenodd">
        <g id="Mi-cuenta---Perfil" transform="translate(-999.000000, -106.000000)" fill="#777777" fill-rule="nonzero">
            <g id="outline-credit_card-24px" transform="translate(999.750000, 106.000000)">
                <g id="Outline">
                    <path d="M22.5,0 L2.5,0 C1.1125,0 0.0125,1.1125 0.0125,2.5 L0,17.5 C0,18.8875 1.1125,20 2.5,20 L22.5,20 C23.8875,20 25,18.8875 25,17.5 L25,2.5 C25,1.1125 23.8875,0 22.5,0 Z M22.5,17.5 L2.5,17.5 L2.5,10 L22.5,10 L22.5,17.5 Z M22.5,5 L2.5,5 L2.5,2.5 L22.5,2.5 L22.5,5 Z" id="Shape"></path>
                </g>
            </g>
        </g>
    </g>
</svg>