<?xml version="1.0" encoding="UTF-8"?>
<svg width="20px" height="20px" viewBox="0 0 20 20" version="1.1" xmlns="http://www.w3.org/2000/svg" xmlns:xlink="http://www.w3.org/1999/xlink">
    <!-- Generator: sketchtool 50.2 (55047) - http://www.bohemiancoding.com/sketch -->
    <title>5F137A66-C74C-4803-8BB2-2D89BA22D8B3</title>
    <desc>Created with sketchtool.</desc>
    <defs></defs>
    <g id="Welcome" stroke="none" stroke-width="1" fill="none" fill-rule="evenodd">
        <g id="Mi-cuenta---Perfil" transform="translate(-630.000000, -106.000000)" fill="#777777" fill-rule="nonzero">
            <g id="Fill" transform="translate(630.000000, 106.000000)">
                <path d="M17.7777778,2 L13.1333333,2 C12.6666667,0.84 11.4444444,0 10,0 C8.55555556,0 7.33333333,0.84 6.86666667,2 L2.22222222,2 C1,2 0,2.9 0,4 L0,18 C0,19.1 1,20 2.22222222,20 L17.7777778,20 C19,20 20,19.1 20,18 L20,4 C20,2.9 19,2 17.7777778,2 Z M10,2 C10.6111111,2 11.1111111,2.45 11.1111111,3 C11.1111111,3.55 10.6111111,4 10,4 C9.38888889,4 8.88888889,3.55 8.88888889,3 C8.88888889,2.45 9.38888889,2 10,2 Z M12.2222222,16 L4.44444444,16 L4.44444444,14 L12.2222222,14 L12.2222222,16 Z M15.5555556,12 L4.44444444,12 L4.44444444,10 L15.5555556,10 L15.5555556,12 Z M15.5555556,8 L4.44444444,8 L4.44444444,6 L15.5555556,6 L15.5555556,8 Z" id="Shape"></path>
            </g>
        </g>
    </g>
</svg>